<svg xmlns="http://www.w3.org/2000/svg" width="375" viewBox="0 0 375 375" height="375" version="1.0"><defs><clipPath id="a"><path d="M 71.804688 193 L 160 193 L 160 204.898438 L 71.804688 204.898438 Z M 71.804688 193"/></clipPath><clipPath id="b"><path d="M 143 193 L 232 193 L 232 204.898438 L 143 204.898438 Z M 143 193"/></clipPath><clipPath id="c"><path d="M 215 193 L 303.554688 193 L 303.554688 204.898438 L 215 204.898438 Z M 215 193"/></clipPath></defs><path fill="#3E3E3E" d="M-37.5 -37.5H412.5V412.5H-37.5z"/><g fill="#FFF"><g><g><path d="M 14.53125 -11.796875 L 8.640625 -14.171875 C 6.390625 -15.097656 4.875 -16.296875 4.09375 -17.765625 C 3.3125 -19.242188 3.054688 -21.09375 3.328125 -23.3125 C 3.773438 -26.613281 4.921875 -28.828125 6.765625 -29.953125 C 8.617188 -31.078125 11.492188 -31.640625 15.390625 -31.640625 C 19.253906 -31.640625 22.628906 -31.21875 25.515625 -30.375 L 24.84375 -25.734375 C 22.144531 -25.828125 18.929688 -25.875 15.203125 -25.875 C 13.378906 -25.90625 12.132812 -25.757812 11.46875 -25.4375 C 10.8125 -25.125 10.378906 -24.28125 10.171875 -22.90625 C 10.015625 -21.882812 10.09375 -21.171875 10.40625 -20.765625 C 10.726562 -20.359375 11.472656 -19.929688 12.640625 -19.484375 L 18.21875 -17.328125 C 20.59375 -16.398438 22.15625 -15.238281 22.90625 -13.84375 C 23.65625 -12.445312 23.878906 -10.53125 23.578125 -8.09375 C 23.128906 -4.675781 22.023438 -2.375 20.265625 -1.1875 C 18.515625 -0.0078125 15.539062 0.578125 11.34375 0.578125 C 7.863281 0.578125 4.304688 0.175781 0.671875 -0.625 L 1.390625 -5.53125 C 7.753906 -5.382812 10.976562 -5.3125 11.0625 -5.3125 C 13.164062 -5.3125 14.59375 -5.515625 15.34375 -5.921875 C 16.09375 -6.328125 16.570312 -7.1875 16.78125 -8.5 C 16.90625 -9.519531 16.816406 -10.222656 16.515625 -10.609375 C 16.210938 -11.003906 15.550781 -11.398438 14.53125 -11.796875 Z M 14.53125 -11.796875" transform="translate(85.123 175.518)"/></g></g></g><g fill="#FFF"><g><g><path d="M 1.265625 0 L 5.625 -31.046875 C 8.382812 -31.316406 12.195312 -31.453125 17.0625 -31.453125 C 21.226562 -31.453125 24.085938 -30.675781 25.640625 -29.125 C 27.203125 -27.582031 27.71875 -24.894531 27.1875 -21.0625 C 26.644531 -17.101562 25.546875 -14.460938 23.890625 -13.140625 C 22.242188 -11.816406 19.457031 -11.15625 15.53125 -11.15625 C 13.457031 -11.15625 11.519531 -11.289062 9.71875 -11.5625 L 8.09375 0 Z M 10.390625 -16.421875 L 15.078125 -16.421875 C 16.929688 -16.421875 18.210938 -16.75 18.921875 -17.40625 C 19.628906 -18.070312 20.132812 -19.457031 20.4375 -21.5625 C 20.695312 -23.351562 20.570312 -24.570312 20.0625 -25.21875 C 19.5625 -25.863281 18.5 -26.1875 16.875 -26.1875 L 11.796875 -26.140625 Z M 10.390625 -16.421875" transform="translate(111.133 175.518)"/></g></g></g><g fill="#FFF"><g><g><path d="M 7 -28.1875 C 9.207031 -30.488281 12.691406 -31.640625 17.453125 -31.640625 C 22.222656 -31.640625 25.523438 -30.414062 27.359375 -27.96875 C 29.191406 -25.519531 29.6875 -21.28125 28.84375 -15.25 C 28.03125 -9.195312 26.519531 -5.046875 24.3125 -2.796875 C 22.113281 -0.546875 18.644531 0.578125 13.90625 0.578125 C 9.039062 0.578125 5.707031 -0.617188 3.90625 -3.015625 C 2.113281 -5.410156 1.625 -9.671875 2.4375 -15.796875 C 3.269531 -21.765625 4.789062 -25.894531 7 -28.1875 Z M 17.234375 -26.09375 C 14.835938 -26.09375 13.128906 -25.363281 12.109375 -23.90625 C 11.085938 -22.457031 10.257812 -19.570312 9.625 -15.25 C 9.0625 -11.207031 9.078125 -8.476562 9.671875 -7.0625 C 10.273438 -5.65625 11.734375 -4.953125 14.046875 -4.953125 C 16.410156 -4.953125 18.117188 -5.691406 19.171875 -7.171875 C 20.222656 -8.660156 21.0625 -11.535156 21.6875 -15.796875 C 22.289062 -19.898438 22.285156 -22.640625 21.671875 -24.015625 C 21.054688 -25.398438 19.578125 -26.09375 17.234375 -26.09375 Z M 17.234375 -26.09375" transform="translate(138.538 175.518)"/></g></g></g><g fill="#FFF"><g><g><path d="M 1.265625 0 L 5.625 -31.046875 C 8.382812 -31.316406 12.207031 -31.453125 17.09375 -31.453125 C 20.96875 -31.453125 23.796875 -30.738281 25.578125 -29.3125 C 27.367188 -27.894531 28.023438 -25.457031 27.546875 -22 C 27.242188 -19.8125 26.554688 -18.09375 25.484375 -16.84375 C 24.421875 -15.601562 22.78125 -14.847656 20.5625 -14.578125 L 20.515625 -14.3125 C 22.585938 -13.832031 23.832031 -12.242188 24.25 -9.546875 L 25.875 0 L 18.859375 0 L 17.421875 -9.625 C 17.296875 -10.582031 17.035156 -11.234375 16.640625 -11.578125 C 16.253906 -11.929688 15.644531 -12.109375 14.8125 -12.109375 L 9.671875 -12.15625 L 7.96875 0 Z M 10.4375 -17.421875 L 15.296875 -17.421875 C 17.097656 -17.421875 18.378906 -17.75 19.140625 -18.40625 C 19.910156 -19.0625 20.429688 -20.289062 20.703125 -22.09375 C 20.941406 -23.65625 20.789062 -24.726562 20.25 -25.3125 C 19.707031 -25.894531 18.613281 -26.1875 16.96875 -26.1875 L 11.65625 -26.140625 Z M 10.4375 -17.421875" transform="translate(169.138 175.518)"/></g></g></g><g fill="#FFF"><g><g><path d="M 27.765625 -25.46875 L 18.5 -25.46875 L 14.9375 0 L 8.0625 0 L 11.65625 -25.46875 L 2.4375 -25.46875 L 3.1875 -31.046875 L 28.53125 -31.046875 Z M 27.765625 -25.46875" transform="translate(197.983 175.518)"/></g></g></g><g fill="#FFF"><g><g><path d="M 8.140625 0 L 1.265625 0 L 5.625 -31.046875 L 12.515625 -31.046875 Z M 8.140625 0" transform="translate(224.713 175.518)"/></g></g></g><g fill="#FFF"><g><g><path d="M 25.109375 -25.65625 L 14.265625 -25.65625 C 13.242188 -25.65625 12.519531 -25.488281 12.09375 -25.15625 C 11.675781 -24.820312 11.410156 -24.175781 11.296875 -23.21875 L 10.578125 -17.953125 L 22.40625 -17.953125 L 21.734375 -13.09375 L 9.90625 -13.09375 L 8.0625 0 L 1.171875 0 L 4.640625 -24.890625 C 4.929688 -26.898438 5.722656 -28.453125 7.015625 -29.546875 C 8.304688 -30.640625 9.988281 -31.1875 12.0625 -31.1875 C 18.445312 -31.1875 23.082031 -31.003906 25.96875 -30.640625 Z M 25.109375 -25.65625" transform="translate(237.853 175.518)"/></g></g></g><g fill="#FFF"><g><g><path d="M 16.515625 -10.125 L 15.125 0 L 8.1875 0 L 9.671875 -10.484375 L 2.46875 -31.046875 L 9.359375 -31.046875 L 12.875 -19.53125 C 13.195312 -18.207031 13.390625 -16.875 13.453125 -15.53125 L 13.953125 -15.53125 C 14.253906 -16.90625 14.789062 -18.269531 15.5625 -19.625 L 22.3125 -31.046875 L 29.703125 -31.046875 Z M 16.515625 -10.125" transform="translate(262.648 175.518)"/></g></g></g><g fill="#FFF"><g><g><path d="M 6.953125 -6.75 L 4.5 -6.75 L 4.5 0 L 2.671875 0 L 2.671875 -6.75 L 0.21875 -6.75 L 0.21875 -8.21875 L 6.953125 -8.21875 Z M 6.953125 -6.75" transform="translate(120.508 234.006)"/></g></g></g><g fill="#FFF"><g><g><path d="M 7.359375 -8.21875 L 7.359375 -3.28125 C 7.359375 -2.019531 7.113281 -1.128906 6.625 -0.609375 C 6.144531 -0.0976562 5.320312 0.15625 4.15625 0.15625 C 2.90625 0.15625 2.03125 -0.0976562 1.53125 -0.609375 C 1.03125 -1.128906 0.78125 -2.019531 0.78125 -3.28125 L 0.78125 -8.21875 L 2.59375 -8.21875 L 2.59375 -3.28125 C 2.59375 -2.519531 2.695312 -2 2.90625 -1.71875 C 3.113281 -1.445312 3.5 -1.3125 4.0625 -1.3125 C 4.625 -1.3125 5.007812 -1.445312 5.21875 -1.71875 C 5.425781 -2 5.53125 -2.519531 5.53125 -3.28125 L 5.53125 -8.21875 Z M 7.359375 -8.21875" transform="translate(129.46 234.006)"/></g></g></g><g fill="#FFF"><g><g><path d="M 7.3125 0 L 5.40625 0 L 4.78125 -2.515625 C 4.695312 -2.773438 4.585938 -2.953125 4.453125 -3.046875 C 4.328125 -3.148438 4.144531 -3.203125 3.90625 -3.203125 L 2.625 -3.21875 L 2.625 0 L 0.828125 0 L 0.828125 -8.21875 C 1.566406 -8.289062 2.613281 -8.328125 3.96875 -8.328125 C 5.070312 -8.328125 5.851562 -8.148438 6.3125 -7.796875 C 6.78125 -7.453125 7.015625 -6.820312 7.015625 -5.90625 C 7.015625 -5.300781 6.890625 -4.828125 6.640625 -4.484375 C 6.398438 -4.140625 6 -3.929688 5.4375 -3.859375 L 5.4375 -3.796875 C 6.0625 -3.660156 6.453125 -3.25 6.609375 -2.5625 Z M 2.625 -4.609375 L 3.9375 -4.609375 C 4.414062 -4.609375 4.738281 -4.691406 4.90625 -4.859375 C 5.082031 -5.023438 5.171875 -5.332031 5.171875 -5.78125 C 5.171875 -6.238281 5.082031 -6.546875 4.90625 -6.703125 C 4.738281 -6.859375 4.414062 -6.9375 3.9375 -6.9375 L 2.625 -6.921875 Z M 2.625 -4.609375" transform="translate(143.74 234.006)"/></g></g></g><g fill="#FFF"><g><g><path d="M 6.3125 -1.421875 L 6.390625 -0.078125 C 5.640625 -0.00390625 4.367188 0.03125 2.578125 0.03125 C 2.023438 0.03125 1.585938 -0.113281 1.265625 -0.40625 C 0.941406 -0.707031 0.773438 -1.113281 0.765625 -1.625 L 0.765625 -6.609375 C 0.773438 -7.117188 0.941406 -7.519531 1.265625 -7.8125 C 1.585938 -8.113281 2.023438 -8.265625 2.578125 -8.265625 C 4.367188 -8.265625 5.640625 -8.222656 6.390625 -8.140625 L 6.3125 -6.796875 L 3.140625 -6.796875 C 2.941406 -6.796875 2.800781 -6.75 2.71875 -6.65625 C 2.632812 -6.5625 2.59375 -6.40625 2.59375 -6.1875 L 2.59375 -4.9375 L 5.859375 -4.9375 L 5.859375 -3.625 L 2.59375 -3.625 L 2.59375 -2.03125 C 2.59375 -1.8125 2.632812 -1.65625 2.71875 -1.5625 C 2.800781 -1.46875 2.941406 -1.421875 3.140625 -1.421875 Z M 6.3125 -1.421875" transform="translate(153.191 234.006)"/></g></g></g><g fill="#FFF"><g><g><path d="M 0.828125 0 L 0.828125 -8.21875 C 1.960938 -8.289062 3.03125 -8.328125 4.03125 -8.328125 C 5.34375 -8.328125 6.253906 -8.023438 6.765625 -7.421875 C 7.273438 -6.816406 7.53125 -5.710938 7.53125 -4.109375 C 7.53125 -2.503906 7.273438 -1.398438 6.765625 -0.796875 C 6.253906 -0.191406 5.34375 0.109375 4.03125 0.109375 C 3.03125 0.109375 1.960938 0.0703125 0.828125 0 Z M 2.640625 -6.90625 L 2.640625 -1.328125 C 2.773438 -1.328125 2.992188 -1.328125 3.296875 -1.328125 C 3.609375 -1.328125 3.851562 -1.328125 4.03125 -1.328125 C 4.644531 -1.328125 5.0625 -1.519531 5.28125 -1.90625 C 5.507812 -2.289062 5.625 -3.023438 5.625 -4.109375 C 5.625 -5.191406 5.507812 -5.929688 5.28125 -6.328125 C 5.0625 -6.722656 4.644531 -6.921875 4.03125 -6.921875 Z M 2.640625 -6.90625" transform="translate(161.845 234.006)"/></g></g></g><g fill="#FFF"><g><g><path d="M 0.828125 0 L 0.828125 -8.21875 C 1.960938 -8.289062 3.03125 -8.328125 4.03125 -8.328125 C 5.34375 -8.328125 6.253906 -8.023438 6.765625 -7.421875 C 7.273438 -6.816406 7.53125 -5.710938 7.53125 -4.109375 C 7.53125 -2.503906 7.273438 -1.398438 6.765625 -0.796875 C 6.253906 -0.191406 5.34375 0.109375 4.03125 0.109375 C 3.03125 0.109375 1.960938 0.0703125 0.828125 0 Z M 2.640625 -6.90625 L 2.640625 -1.328125 C 2.773438 -1.328125 2.992188 -1.328125 3.296875 -1.328125 C 3.609375 -1.328125 3.851562 -1.328125 4.03125 -1.328125 C 4.644531 -1.328125 5.0625 -1.519531 5.28125 -1.90625 C 5.507812 -2.289062 5.625 -3.023438 5.625 -4.109375 C 5.625 -5.191406 5.507812 -5.929688 5.28125 -6.328125 C 5.0625 -6.722656 4.644531 -6.921875 4.03125 -6.921875 Z M 2.640625 -6.90625" transform="translate(176.113 234.006)"/></g></g></g><g fill="#FFF"><g><g><path d="M 6.3125 -1.421875 L 6.390625 -0.078125 C 5.640625 -0.00390625 4.367188 0.03125 2.578125 0.03125 C 2.023438 0.03125 1.585938 -0.113281 1.265625 -0.40625 C 0.941406 -0.707031 0.773438 -1.113281 0.765625 -1.625 L 0.765625 -6.609375 C 0.773438 -7.117188 0.941406 -7.519531 1.265625 -7.8125 C 1.585938 -8.113281 2.023438 -8.265625 2.578125 -8.265625 C 4.367188 -8.265625 5.640625 -8.222656 6.390625 -8.140625 L 6.3125 -6.796875 L 3.140625 -6.796875 C 2.941406 -6.796875 2.800781 -6.75 2.71875 -6.65625 C 2.632812 -6.5625 2.59375 -6.40625 2.59375 -6.1875 L 2.59375 -4.9375 L 5.859375 -4.9375 L 5.859375 -3.625 L 2.59375 -3.625 L 2.59375 -2.03125 C 2.59375 -1.8125 2.632812 -1.65625 2.71875 -1.5625 C 2.800781 -1.46875 2.941406 -1.421875 3.140625 -1.421875 Z M 6.3125 -1.421875" transform="translate(186.006 234.006)"/></g></g></g><g fill="#FFF"><g><g><path d="M 0.828125 0 L 0.828125 -8.21875 C 1.566406 -8.289062 2.609375 -8.328125 3.953125 -8.328125 C 5.109375 -8.328125 5.898438 -8.140625 6.328125 -7.765625 C 6.753906 -7.398438 6.96875 -6.695312 6.96875 -5.65625 C 6.96875 -4.613281 6.765625 -3.898438 6.359375 -3.515625 C 5.960938 -3.140625 5.242188 -2.953125 4.203125 -2.953125 C 3.671875 -2.953125 3.148438 -2.984375 2.640625 -3.046875 L 2.640625 0 Z M 2.640625 -4.34375 L 3.921875 -4.34375 C 4.390625 -4.351562 4.707031 -4.445312 4.875 -4.625 C 5.050781 -4.800781 5.140625 -5.140625 5.140625 -5.640625 C 5.140625 -6.148438 5.050781 -6.492188 4.875 -6.671875 C 4.707031 -6.847656 4.390625 -6.9375 3.921875 -6.9375 L 2.640625 -6.921875 Z M 2.640625 -4.34375" transform="translate(194.66 234.006)"/></g></g></g><g fill="#FFF"><g><g><path d="M 1.328125 -7.46875 C 1.835938 -8.070312 2.753906 -8.375 4.078125 -8.375 C 5.398438 -8.375 6.316406 -8.070312 6.828125 -7.46875 C 7.347656 -6.863281 7.609375 -5.742188 7.609375 -4.109375 C 7.609375 -2.484375 7.347656 -1.363281 6.828125 -0.75 C 6.316406 -0.144531 5.398438 0.15625 4.078125 0.15625 C 2.753906 0.15625 1.835938 -0.144531 1.328125 -0.75 C 0.816406 -1.363281 0.5625 -2.484375 0.5625 -4.109375 C 0.5625 -5.742188 0.816406 -6.863281 1.328125 -7.46875 Z M 5.34375 -6.328125 C 5.113281 -6.722656 4.6875 -6.921875 4.0625 -6.921875 C 3.445312 -6.921875 3.023438 -6.722656 2.796875 -6.328125 C 2.578125 -5.941406 2.46875 -5.203125 2.46875 -4.109375 C 2.46875 -3.023438 2.578125 -2.285156 2.796875 -1.890625 C 3.023438 -1.503906 3.445312 -1.3125 4.0625 -1.3125 C 4.6875 -1.3125 5.113281 -1.503906 5.34375 -1.890625 C 5.570312 -2.285156 5.6875 -3.023438 5.6875 -4.109375 C 5.6875 -5.203125 5.570312 -5.941406 5.34375 -6.328125 Z M 5.34375 -6.328125" transform="translate(203.766 234.006)"/></g></g></g><g fill="#FFF"><g><g><path d="M 7.3125 0 L 5.40625 0 L 4.78125 -2.515625 C 4.695312 -2.773438 4.585938 -2.953125 4.453125 -3.046875 C 4.328125 -3.148438 4.144531 -3.203125 3.90625 -3.203125 L 2.625 -3.21875 L 2.625 0 L 0.828125 0 L 0.828125 -8.21875 C 1.566406 -8.289062 2.613281 -8.328125 3.96875 -8.328125 C 5.070312 -8.328125 5.851562 -8.148438 6.3125 -7.796875 C 6.78125 -7.453125 7.015625 -6.820312 7.015625 -5.90625 C 7.015625 -5.300781 6.890625 -4.828125 6.640625 -4.484375 C 6.398438 -4.140625 6 -3.929688 5.4375 -3.859375 L 5.4375 -3.796875 C 6.0625 -3.660156 6.453125 -3.25 6.609375 -2.5625 Z M 2.625 -4.609375 L 3.9375 -4.609375 C 4.414062 -4.609375 4.738281 -4.691406 4.90625 -4.859375 C 5.082031 -5.023438 5.171875 -5.332031 5.171875 -5.78125 C 5.171875 -6.238281 5.082031 -6.546875 4.90625 -6.703125 C 4.738281 -6.859375 4.414062 -6.9375 3.9375 -6.9375 L 2.625 -6.921875 Z M 2.625 -4.609375" transform="translate(213.706 234.006)"/></g></g></g><g fill="#FFF"><g><g><path d="M 6.953125 -6.75 L 4.5 -6.75 L 4.5 0 L 2.671875 0 L 2.671875 -6.75 L 0.21875 -6.75 L 0.21875 -8.21875 L 6.953125 -8.21875 Z M 6.953125 -6.75" transform="translate(223.159 234.006)"/></g></g></g><g fill="#FFF"><g><g><path d="M 2.640625 0 L 0.828125 0 L 0.828125 -8.21875 L 2.640625 -8.21875 Z M 2.640625 0" transform="translate(232.11 234.006)"/></g></g></g><g fill="#FFF"><g><g><path d="M 7.5 -8.21875 L 5.265625 -0.5 C 5.222656 -0.351562 5.144531 -0.234375 5.03125 -0.140625 C 4.914062 -0.046875 4.78125 0 4.625 0 L 2.96875 0 C 2.8125 0 2.675781 -0.046875 2.5625 -0.140625 C 2.445312 -0.234375 2.367188 -0.351562 2.328125 -0.5 L 0.078125 -8.21875 L 1.953125 -8.21875 L 3.453125 -2.28125 C 3.523438 -1.96875 3.585938 -1.664062 3.640625 -1.375 L 3.953125 -1.375 C 3.972656 -1.519531 4.039062 -1.820312 4.15625 -2.28125 L 5.625 -8.21875 Z M 7.5 -8.21875" transform="translate(237.379 234.006)"/></g></g></g><g fill="#FFF"><g><g><path d="M 5.296875 -2.15625 L 2.46875 -2.15625 L 1.875 0 L 0.015625 0 L 2.390625 -7.75 C 2.421875 -7.894531 2.492188 -8.007812 2.609375 -8.09375 C 2.734375 -8.175781 2.867188 -8.21875 3.015625 -8.21875 L 4.734375 -8.21875 C 5.078125 -8.21875 5.285156 -8.0625 5.359375 -7.75 L 7.734375 0 L 5.890625 0 Z M 4.90625 -3.5625 L 4.203125 -6.078125 C 4.109375 -6.472656 4.054688 -6.734375 4.046875 -6.859375 L 3.71875 -6.859375 C 3.707031 -6.773438 3.679688 -6.644531 3.640625 -6.46875 C 3.597656 -6.300781 3.566406 -6.171875 3.546875 -6.078125 L 2.84375 -3.5625 Z M 4.90625 -3.5625" transform="translate(246.748 234.006)"/></g></g></g><g clip-path="url(#a)"><path fill="#FF3036" d="M 71.804688 205.359375 L 87.71875 193.113281 L 159.664062 193.113281 L 143.75 205.359375 L 71.804688 205.359375"/></g><g clip-path="url(#b)"><path fill="#FF3036" d="M 215.695312 205.359375 L 143.75 205.359375 L 159.664062 193.113281 L 231.609375 193.113281 Z M 215.695312 205.359375"/></g><g clip-path="url(#c)"><path fill="#FF3036" d="M 287.640625 205.359375 L 215.695312 205.359375 L 231.609375 193.113281 L 303.554688 193.113281 Z M 287.640625 205.359375"/></g></svg>