<svg xmlns="http://www.w3.org/2000/svg" width="375" viewBox="0 0 375 375" height="375" version="1.0"><defs><clipPath id="a"><path d="M 71.804688 194.078125 L 160 194.078125 L 160 206.078125 L 71.804688 206.078125 Z M 71.804688 194.078125"/></clipPath><clipPath id="b"><path d="M 143 194.078125 L 232 194.078125 L 232 206.078125 L 143 206.078125 Z M 143 194.078125"/></clipPath><clipPath id="c"><path d="M 215 194.078125 L 303.554688 194.078125 L 303.554688 206.078125 L 215 206.078125 Z M 215 194.078125"/></clipPath></defs><g fill="#FFF"><g><g><path d="M 16.46875 -13.359375 L 9.796875 -16.0625 C 7.242188 -17.113281 5.523438 -18.472656 4.640625 -20.140625 C 3.753906 -21.804688 3.46875 -23.898438 3.78125 -26.421875 C 4.28125 -30.160156 5.578125 -32.664062 7.671875 -33.9375 C 9.765625 -35.21875 13.019531 -35.859375 17.4375 -35.859375 C 21.820312 -35.859375 25.648438 -35.378906 28.921875 -34.421875 L 28.15625 -29.171875 C 25.09375 -29.273438 21.453125 -29.328125 17.234375 -29.328125 C 15.160156 -29.359375 13.75 -29.195312 13 -28.84375 C 12.257812 -28.488281 11.769531 -27.523438 11.53125 -25.953125 C 11.351562 -24.796875 11.441406 -23.988281 11.796875 -23.53125 C 12.160156 -23.070312 13.003906 -22.585938 14.328125 -22.078125 L 20.65625 -19.640625 C 23.34375 -18.578125 25.109375 -17.253906 25.953125 -15.671875 C 26.804688 -14.097656 27.0625 -11.9375 26.71875 -9.1875 C 26.207031 -5.300781 24.957031 -2.6875 22.96875 -1.34375 C 20.976562 -0.0078125 17.609375 0.65625 12.859375 0.65625 C 8.910156 0.65625 4.878906 0.195312 0.765625 -0.71875 L 1.578125 -6.265625 C 8.785156 -6.097656 12.441406 -6.015625 12.546875 -6.015625 C 14.921875 -6.015625 16.535156 -6.242188 17.390625 -6.703125 C 18.242188 -7.160156 18.785156 -8.140625 19.015625 -9.640625 C 19.160156 -10.796875 19.0625 -11.59375 18.71875 -12.03125 C 18.375 -12.476562 17.625 -12.921875 16.46875 -13.359375 Z M 16.46875 -13.359375" transform="translate(71.494 175.168)"/></g></g></g><g fill="#FFF"><g><g><path d="M 1.421875 0 L 6.375 -35.1875 C 9.5 -35.5 13.816406 -35.65625 19.328125 -35.65625 C 24.054688 -35.65625 27.300781 -34.773438 29.0625 -33.015625 C 30.832031 -31.265625 31.410156 -28.21875 30.796875 -23.875 C 30.191406 -19.382812 28.953125 -16.390625 27.078125 -14.890625 C 25.210938 -13.390625 22.050781 -12.640625 17.59375 -12.640625 C 15.25 -12.640625 13.054688 -12.796875 11.015625 -13.109375 L 9.1875 0 Z M 11.78125 -18.609375 L 17.078125 -18.609375 C 19.191406 -18.609375 20.644531 -18.984375 21.4375 -19.734375 C 22.238281 -20.484375 22.8125 -22.046875 23.15625 -24.421875 C 23.457031 -26.460938 23.316406 -27.847656 22.734375 -28.578125 C 22.160156 -29.316406 20.957031 -29.6875 19.125 -29.6875 L 13.359375 -29.625 Z M 11.78125 -18.609375" transform="translate(100.965 175.168)"/></g></g></g><g fill="#FFF"><g><g><path d="M 7.921875 -31.953125 C 10.421875 -34.554688 14.375 -35.859375 19.78125 -35.859375 C 25.1875 -35.859375 28.925781 -34.472656 31 -31.703125 C 33.082031 -28.929688 33.644531 -24.125 32.6875 -17.28125 C 31.769531 -10.414062 30.0625 -5.707031 27.5625 -3.15625 C 25.0625 -0.613281 21.128906 0.65625 15.765625 0.65625 C 10.253906 0.65625 6.476562 -0.703125 4.4375 -3.421875 C 2.394531 -6.140625 1.832031 -10.96875 2.75 -17.90625 C 3.707031 -24.664062 5.429688 -29.347656 7.921875 -31.953125 Z M 19.53125 -29.578125 C 16.8125 -29.578125 14.875 -28.753906 13.71875 -27.109375 C 12.5625 -25.460938 11.625 -22.1875 10.90625 -17.28125 C 10.257812 -12.695312 10.273438 -9.601562 10.953125 -8 C 11.640625 -6.40625 13.289062 -5.609375 15.90625 -5.609375 C 18.59375 -5.609375 20.53125 -6.445312 21.71875 -8.125 C 22.914062 -9.8125 23.867188 -13.070312 24.578125 -17.90625 C 25.265625 -22.5625 25.257812 -25.671875 24.5625 -27.234375 C 23.863281 -28.796875 22.1875 -29.578125 19.53125 -29.578125 Z M 19.53125 -29.578125" transform="translate(132.017 175.168)"/></g></g></g><g fill="#FFF"><g><g><path d="M 1.421875 0 L 6.375 -35.1875 C 9.5 -35.5 13.832031 -35.65625 19.375 -35.65625 C 23.757812 -35.65625 26.960938 -34.84375 28.984375 -33.21875 C 31.015625 -31.601562 31.757812 -28.84375 31.21875 -24.9375 C 30.875 -22.457031 30.097656 -20.507812 28.890625 -19.09375 C 27.679688 -17.6875 25.820312 -16.832031 23.3125 -16.53125 L 23.25 -16.21875 C 25.601562 -15.675781 27.015625 -13.875 27.484375 -10.8125 L 29.328125 0 L 21.375 0 L 19.734375 -10.90625 C 19.597656 -12 19.304688 -12.738281 18.859375 -13.125 C 18.421875 -13.519531 17.726562 -13.71875 16.78125 -13.71875 L 10.96875 -13.765625 L 9.03125 0 Z M 11.828125 -19.734375 L 17.34375 -19.734375 C 19.382812 -19.734375 20.835938 -20.109375 21.703125 -20.859375 C 22.566406 -21.609375 23.148438 -23.003906 23.453125 -25.046875 C 23.734375 -26.804688 23.566406 -28.019531 22.953125 -28.6875 C 22.335938 -29.351562 21.097656 -29.6875 19.234375 -29.6875 L 13.203125 -29.625 Z M 11.828125 -19.734375" transform="translate(166.69 175.168)"/></g></g></g><g fill="#FFF"><g><g><path d="M 31.46875 -28.859375 L 20.96875 -28.859375 L 16.9375 0 L 9.125 0 L 13.203125 -28.859375 L 2.75 -28.859375 L 3.625 -35.1875 L 32.328125 -35.1875 Z M 31.46875 -28.859375" transform="translate(199.373 175.168)"/></g></g></g><g fill="#FFF"><g><g><path d="M 9.234375 0 L 1.421875 0 L 6.375 -35.1875 L 14.171875 -35.1875 Z M 9.234375 0" transform="translate(229.66 175.168)"/></g></g></g><g fill="#FFF"><g><g><path d="M 28.453125 -29.0625 L 16.171875 -29.0625 C 15.015625 -29.0625 14.195312 -28.875 13.71875 -28.5 C 13.238281 -28.132812 12.929688 -27.40625 12.796875 -26.3125 L 11.984375 -20.34375 L 25.390625 -20.34375 L 24.640625 -14.84375 L 11.21875 -14.84375 L 9.125 0 L 1.328125 0 L 5.25 -28.203125 C 5.59375 -30.484375 6.492188 -32.242188 7.953125 -33.484375 C 9.421875 -34.722656 11.328125 -35.34375 13.671875 -35.34375 C 20.910156 -35.34375 26.160156 -35.140625 29.421875 -34.734375 Z M 28.453125 -29.0625" transform="translate(244.548 175.168)"/></g></g></g><g fill="#FFF"><g><g><path d="M 18.71875 -11.46875 L 17.140625 0 L 9.28125 0 L 10.96875 -11.890625 L 2.8125 -35.1875 L 10.609375 -35.1875 L 14.59375 -22.140625 C 14.957031 -20.640625 15.175781 -19.125 15.25 -17.59375 L 15.8125 -17.59375 C 16.144531 -19.15625 16.753906 -20.703125 17.640625 -22.234375 L 25.296875 -35.1875 L 33.65625 -35.1875 Z M 18.71875 -11.46875" transform="translate(272.643 175.168)"/></g></g></g><g fill="#FFF"><g><g><path d="M 9.28125 -9.015625 L 6 -9.015625 L 6 0 L 3.5625 0 L 3.5625 -9.015625 L 0.28125 -9.015625 L 0.28125 -10.984375 L 9.28125 -10.984375 Z M 9.28125 -9.015625" transform="translate(98.038 239.286)"/></g></g></g><g fill="#FFF"><g><g><path d="M 9.828125 -10.984375 L 9.828125 -4.375 C 9.828125 -2.695312 9.503906 -1.515625 8.859375 -0.828125 C 8.210938 -0.140625 7.109375 0.203125 5.546875 0.203125 C 3.890625 0.203125 2.722656 -0.140625 2.046875 -0.828125 C 1.367188 -1.515625 1.03125 -2.695312 1.03125 -4.375 L 1.03125 -10.984375 L 3.453125 -10.984375 L 3.453125 -4.375 C 3.453125 -3.363281 3.59375 -2.671875 3.875 -2.296875 C 4.15625 -1.929688 4.671875 -1.75 5.421875 -1.75 C 6.171875 -1.75 6.6875 -1.929688 6.96875 -2.296875 C 7.25 -2.671875 7.390625 -3.363281 7.390625 -4.375 L 7.390625 -10.984375 Z M 9.828125 -10.984375" transform="translate(109.991 239.286)"/></g></g></g><g fill="#FFF"><g><g><path d="M 9.78125 0 L 7.21875 0 L 6.390625 -3.359375 C 6.273438 -3.710938 6.128906 -3.953125 5.953125 -4.078125 C 5.785156 -4.210938 5.535156 -4.28125 5.203125 -4.28125 L 3.5 -4.296875 L 3.5 0 L 1.109375 0 L 1.109375 -10.984375 C 2.097656 -11.078125 3.492188 -11.125 5.296875 -11.125 C 6.773438 -11.125 7.820312 -10.890625 8.4375 -10.421875 C 9.050781 -9.960938 9.359375 -9.113281 9.359375 -7.875 C 9.359375 -7.070312 9.195312 -6.441406 8.875 -5.984375 C 8.550781 -5.523438 8.015625 -5.25 7.265625 -5.15625 L 7.265625 -5.078125 C 8.097656 -4.890625 8.617188 -4.335938 8.828125 -3.421875 Z M 3.5 -6.15625 L 5.25 -6.15625 C 5.882812 -6.15625 6.316406 -6.265625 6.546875 -6.484375 C 6.785156 -6.703125 6.90625 -7.113281 6.90625 -7.71875 C 6.90625 -8.320312 6.789062 -8.726562 6.5625 -8.9375 C 6.332031 -9.15625 5.894531 -9.265625 5.25 -9.265625 L 3.5 -9.25 Z M 3.5 -6.15625" transform="translate(129.06 239.286)"/></g></g></g><g fill="#FFF"><g><g><path d="M 8.421875 -1.890625 L 8.53125 -0.109375 C 7.53125 -0.00390625 5.832031 0.046875 3.4375 0.046875 C 2.707031 0.046875 2.125 -0.148438 1.6875 -0.546875 C 1.25 -0.941406 1.023438 -1.484375 1.015625 -2.171875 L 1.015625 -8.828125 C 1.023438 -9.503906 1.25 -10.039062 1.6875 -10.4375 C 2.125 -10.832031 2.707031 -11.03125 3.4375 -11.03125 C 5.832031 -11.03125 7.53125 -10.976562 8.53125 -10.875 L 8.421875 -9.078125 L 4.203125 -9.078125 C 3.941406 -9.078125 3.75 -9.007812 3.625 -8.875 C 3.507812 -8.75 3.453125 -8.546875 3.453125 -8.265625 L 3.453125 -6.59375 L 7.828125 -6.59375 L 7.828125 -4.84375 L 3.453125 -4.84375 L 3.453125 -2.71875 C 3.453125 -2.425781 3.507812 -2.210938 3.625 -2.078125 C 3.75 -1.953125 3.941406 -1.890625 4.203125 -1.890625 Z M 8.421875 -1.890625" transform="translate(141.681 239.286)"/></g></g></g><g fill="#FFF"><g><g><path d="M 1.109375 0 L 1.109375 -10.984375 C 2.617188 -11.078125 4.039062 -11.125 5.375 -11.125 C 7.132812 -11.125 8.351562 -10.71875 9.03125 -9.90625 C 9.71875 -9.101562 10.0625 -7.628906 10.0625 -5.484375 C 10.0625 -3.347656 9.71875 -1.875 9.03125 -1.0625 C 8.351562 -0.257812 7.132812 0.140625 5.375 0.140625 C 4.039062 0.140625 2.617188 0.09375 1.109375 0 Z M 3.53125 -9.21875 L 3.53125 -1.78125 C 3.71875 -1.78125 4.015625 -1.773438 4.421875 -1.765625 C 4.828125 -1.765625 5.144531 -1.765625 5.375 -1.765625 C 6.195312 -1.765625 6.757812 -2.023438 7.0625 -2.546875 C 7.363281 -3.066406 7.515625 -4.046875 7.515625 -5.484375 C 7.515625 -6.929688 7.363281 -7.914062 7.0625 -8.4375 C 6.757812 -8.96875 6.195312 -9.234375 5.375 -9.234375 Z M 3.53125 -9.21875" transform="translate(153.237 239.286)"/></g></g></g><g fill="#FFF"><g><g><path d="M 1.109375 0 L 1.109375 -10.984375 C 2.617188 -11.078125 4.039062 -11.125 5.375 -11.125 C 7.132812 -11.125 8.351562 -10.71875 9.03125 -9.90625 C 9.71875 -9.101562 10.0625 -7.628906 10.0625 -5.484375 C 10.0625 -3.347656 9.71875 -1.875 9.03125 -1.0625 C 8.351562 -0.257812 7.132812 0.140625 5.375 0.140625 C 4.039062 0.140625 2.617188 0.09375 1.109375 0 Z M 3.53125 -9.21875 L 3.53125 -1.78125 C 3.71875 -1.78125 4.015625 -1.773438 4.421875 -1.765625 C 4.828125 -1.765625 5.144531 -1.765625 5.375 -1.765625 C 6.195312 -1.765625 6.757812 -2.023438 7.0625 -2.546875 C 7.363281 -3.066406 7.515625 -4.046875 7.515625 -5.484375 C 7.515625 -6.929688 7.363281 -7.914062 7.0625 -8.4375 C 6.757812 -8.96875 6.195312 -9.234375 5.375 -9.234375 Z M 3.53125 -9.21875" transform="translate(172.29 239.286)"/></g></g></g><g fill="#FFF"><g><g><path d="M 8.421875 -1.890625 L 8.53125 -0.109375 C 7.53125 -0.00390625 5.832031 0.046875 3.4375 0.046875 C 2.707031 0.046875 2.125 -0.148438 1.6875 -0.546875 C 1.25 -0.941406 1.023438 -1.484375 1.015625 -2.171875 L 1.015625 -8.828125 C 1.023438 -9.503906 1.25 -10.039062 1.6875 -10.4375 C 2.125 -10.832031 2.707031 -11.03125 3.4375 -11.03125 C 5.832031 -11.03125 7.53125 -10.976562 8.53125 -10.875 L 8.421875 -9.078125 L 4.203125 -9.078125 C 3.941406 -9.078125 3.75 -9.007812 3.625 -8.875 C 3.507812 -8.75 3.453125 -8.546875 3.453125 -8.265625 L 3.453125 -6.59375 L 7.828125 -6.59375 L 7.828125 -4.84375 L 3.453125 -4.84375 L 3.453125 -2.71875 C 3.453125 -2.425781 3.507812 -2.210938 3.625 -2.078125 C 3.75 -1.953125 3.941406 -1.890625 4.203125 -1.890625 Z M 8.421875 -1.890625" transform="translate(185.5 239.286)"/></g></g></g><g fill="#FFF"><g><g><path d="M 1.109375 0 L 1.109375 -10.984375 C 2.097656 -11.078125 3.488281 -11.125 5.28125 -11.125 C 6.820312 -11.125 7.875 -10.875 8.4375 -10.375 C 9.007812 -9.875 9.296875 -8.929688 9.296875 -7.546875 C 9.296875 -6.160156 9.023438 -5.210938 8.484375 -4.703125 C 7.953125 -4.203125 6.992188 -3.953125 5.609375 -3.953125 C 4.898438 -3.953125 4.207031 -3.992188 3.53125 -4.078125 L 3.53125 0 Z M 3.53125 -5.8125 L 5.234375 -5.8125 C 5.859375 -5.820312 6.285156 -5.941406 6.515625 -6.171875 C 6.742188 -6.410156 6.859375 -6.867188 6.859375 -7.546875 C 6.859375 -8.222656 6.742188 -8.675781 6.515625 -8.90625 C 6.285156 -9.144531 5.859375 -9.265625 5.234375 -9.265625 L 3.53125 -9.25 Z M 3.53125 -5.8125" transform="translate(197.055 239.286)"/></g></g></g><g fill="#FFF"><g><g><path d="M 1.765625 -9.96875 C 2.453125 -10.78125 3.675781 -11.1875 5.4375 -11.1875 C 7.207031 -11.1875 8.4375 -10.78125 9.125 -9.96875 C 9.8125 -9.15625 10.15625 -7.660156 10.15625 -5.484375 C 10.15625 -3.316406 9.8125 -1.828125 9.125 -1.015625 C 8.4375 -0.203125 7.207031 0.203125 5.4375 0.203125 C 3.675781 0.203125 2.453125 -0.203125 1.765625 -1.015625 C 1.085938 -1.828125 0.75 -3.316406 0.75 -5.484375 C 0.75 -7.660156 1.085938 -9.15625 1.765625 -9.96875 Z M 7.140625 -8.453125 C 6.835938 -8.972656 6.269531 -9.234375 5.4375 -9.234375 C 4.613281 -9.234375 4.050781 -8.972656 3.75 -8.453125 C 3.445312 -7.929688 3.296875 -6.941406 3.296875 -5.484375 C 3.296875 -4.035156 3.445312 -3.050781 3.75 -2.53125 C 4.050781 -2.007812 4.613281 -1.75 5.4375 -1.75 C 6.269531 -1.75 6.835938 -2.007812 7.140625 -2.53125 C 7.441406 -3.050781 7.59375 -4.035156 7.59375 -5.484375 C 7.59375 -6.941406 7.441406 -7.929688 7.140625 -8.453125 Z M 7.140625 -8.453125" transform="translate(209.215 239.286)"/></g></g></g><g fill="#FFF"><g><g><path d="M 9.78125 0 L 7.21875 0 L 6.390625 -3.359375 C 6.273438 -3.710938 6.128906 -3.953125 5.953125 -4.078125 C 5.785156 -4.210938 5.535156 -4.28125 5.203125 -4.28125 L 3.5 -4.296875 L 3.5 0 L 1.109375 0 L 1.109375 -10.984375 C 2.097656 -11.078125 3.492188 -11.125 5.296875 -11.125 C 6.773438 -11.125 7.820312 -10.890625 8.4375 -10.421875 C 9.050781 -9.960938 9.359375 -9.113281 9.359375 -7.875 C 9.359375 -7.070312 9.195312 -6.441406 8.875 -5.984375 C 8.550781 -5.523438 8.015625 -5.25 7.265625 -5.15625 L 7.265625 -5.078125 C 8.097656 -4.890625 8.617188 -4.335938 8.828125 -3.421875 Z M 3.5 -6.15625 L 5.25 -6.15625 C 5.882812 -6.15625 6.316406 -6.265625 6.546875 -6.484375 C 6.785156 -6.703125 6.90625 -7.113281 6.90625 -7.71875 C 6.90625 -8.320312 6.789062 -8.726562 6.5625 -8.9375 C 6.332031 -9.15625 5.894531 -9.265625 5.25 -9.265625 L 3.5 -9.25 Z M 3.5 -6.15625" transform="translate(222.489 239.286)"/></g></g></g><g fill="#FFF"><g><g><path d="M 9.28125 -9.015625 L 6 -9.015625 L 6 0 L 3.5625 0 L 3.5625 -9.015625 L 0.28125 -9.015625 L 0.28125 -10.984375 L 9.28125 -10.984375 Z M 9.28125 -9.015625" transform="translate(235.11 239.286)"/></g></g></g><g fill="#FFF"><g><g><path d="M 3.53125 0 L 1.109375 0 L 1.109375 -10.984375 L 3.53125 -10.984375 Z M 3.53125 0" transform="translate(247.064 239.286)"/></g></g></g><g fill="#FFF"><g><g><path d="M 10.015625 -10.984375 L 7.03125 -0.671875 C 6.976562 -0.460938 6.875 -0.296875 6.71875 -0.171875 C 6.570312 -0.0546875 6.390625 0 6.171875 0 L 3.96875 0 C 3.75 0 3.5625 -0.0546875 3.40625 -0.171875 C 3.257812 -0.296875 3.160156 -0.460938 3.109375 -0.671875 L 0.109375 -10.984375 L 2.609375 -10.984375 L 4.59375 -3.0625 C 4.707031 -2.632812 4.800781 -2.222656 4.875 -1.828125 L 5.265625 -1.828125 C 5.296875 -2.035156 5.390625 -2.445312 5.546875 -3.0625 L 7.515625 -10.984375 Z M 10.015625 -10.984375" transform="translate(254.1 239.286)"/></g></g></g><g fill="#FFF"><g><g><path d="M 7.0625 -2.875 L 3.296875 -2.875 L 2.5 0 L 0.015625 0 L 3.1875 -10.34375 C 3.226562 -10.539062 3.328125 -10.695312 3.484375 -10.8125 C 3.640625 -10.925781 3.820312 -10.984375 4.03125 -10.984375 L 6.328125 -10.984375 C 6.773438 -10.984375 7.054688 -10.769531 7.171875 -10.34375 L 10.328125 0 L 7.859375 0 Z M 6.546875 -4.765625 L 5.625 -8.125 C 5.488281 -8.65625 5.410156 -9 5.390625 -9.15625 L 4.96875 -9.15625 C 4.945312 -9.050781 4.910156 -8.878906 4.859375 -8.640625 C 4.804688 -8.410156 4.765625 -8.238281 4.734375 -8.125 L 3.8125 -4.765625 Z M 6.546875 -4.765625" transform="translate(266.61 239.286)"/></g></g></g><g clip-path="url(#a)"><path fill="#FF3036" d="M 71.804688 206.539062 L 87.71875 194.292969 L 159.664062 194.292969 L 143.75 206.539062 L 71.804688 206.539062"/></g><g clip-path="url(#b)"><path fill="#FF3036" d="M 215.695312 206.539062 L 143.75 206.539062 L 159.664062 194.292969 L 231.609375 194.292969 Z M 215.695312 206.539062"/></g><g clip-path="url(#c)"><path fill="#FF3036" d="M 287.640625 206.539062 L 215.695312 206.539062 L 231.609375 194.292969 L 303.554688 194.292969 Z M 287.640625 206.539062"/></g></svg>