<svg xmlns="http://www.w3.org/2000/svg" width="375" viewBox="0 0 375 375" height="375" version="1.0"><defs><clipPath id="a"><path d="M 71.804688 194.078125 L 160 194.078125 L 160 206.078125 L 71.804688 206.078125 Z M 71.804688 194.078125"/></clipPath><clipPath id="b"><path d="M 143 194.078125 L 232 194.078125 L 232 206.078125 L 143 206.078125 Z M 143 194.078125"/></clipPath><clipPath id="c"><path d="M 215 194.078125 L 303.554688 194.078125 L 303.554688 206.078125 L 215 206.078125 Z M 215 194.078125"/></clipPath></defs><g fill="#FFF"><g><g><path d="M 16.46875 -13.359375 L 9.796875 -16.0625 C 7.242188 -17.113281 5.523438 -18.472656 4.640625 -20.140625 C 3.753906 -21.804688 3.46875 -23.898438 3.78125 -26.421875 C 4.28125 -30.160156 5.578125 -32.664062 7.671875 -33.9375 C 9.765625 -35.21875 13.019531 -35.859375 17.4375 -35.859375 C 21.820312 -35.859375 25.648438 -35.378906 28.921875 -34.421875 L 28.15625 -29.171875 C 25.09375 -29.273438 21.453125 -29.328125 17.234375 -29.328125 C 15.160156 -29.359375 13.75 -29.195312 13 -28.84375 C 12.257812 -28.488281 11.769531 -27.523438 11.53125 -25.953125 C 11.351562 -24.796875 11.441406 -23.988281 11.796875 -23.53125 C 12.160156 -23.070312 13.003906 -22.585938 14.328125 -22.078125 L 20.65625 -19.640625 C 23.34375 -18.578125 25.109375 -17.253906 25.953125 -15.671875 C 26.804688 -14.097656 27.0625 -11.9375 26.71875 -9.1875 C 26.207031 -5.300781 24.957031 -2.6875 22.96875 -1.34375 C 20.976562 -0.0078125 17.609375 0.65625 12.859375 0.65625 C 8.910156 0.65625 4.878906 0.195312 0.765625 -0.71875 L 1.578125 -6.265625 C 8.785156 -6.097656 12.441406 -6.015625 12.546875 -6.015625 C 14.921875 -6.015625 16.535156 -6.242188 17.390625 -6.703125 C 18.242188 -7.160156 18.785156 -8.140625 19.015625 -9.640625 C 19.160156 -10.796875 19.0625 -11.59375 18.71875 -12.03125 C 18.375 -12.476562 17.625 -12.921875 16.46875 -13.359375 Z M 16.46875 -13.359375" transform="translate(71.494 175.168)"/></g></g></g><g fill="#FFF"><g><g><path d="M 1.421875 0 L 6.375 -35.1875 C 9.5 -35.5 13.816406 -35.65625 19.328125 -35.65625 C 24.054688 -35.65625 27.300781 -34.773438 29.0625 -33.015625 C 30.832031 -31.265625 31.410156 -28.21875 30.796875 -23.875 C 30.191406 -19.382812 28.953125 -16.390625 27.078125 -14.890625 C 25.210938 -13.390625 22.050781 -12.640625 17.59375 -12.640625 C 15.25 -12.640625 13.054688 -12.796875 11.015625 -13.109375 L 9.1875 0 Z M 11.78125 -18.609375 L 17.078125 -18.609375 C 19.191406 -18.609375 20.644531 -18.984375 21.4375 -19.734375 C 22.238281 -20.484375 22.8125 -22.046875 23.15625 -24.421875 C 23.457031 -26.460938 23.316406 -27.847656 22.734375 -28.578125 C 22.160156 -29.316406 20.957031 -29.6875 19.125 -29.6875 L 13.359375 -29.625 Z M 11.78125 -18.609375" transform="translate(100.965 175.168)"/></g></g></g><g fill="#FFF"><g><g><path d="M 7.921875 -31.953125 C 10.421875 -34.554688 14.375 -35.859375 19.78125 -35.859375 C 25.1875 -35.859375 28.925781 -34.472656 31 -31.703125 C 33.082031 -28.929688 33.644531 -24.125 32.6875 -17.28125 C 31.769531 -10.414062 30.0625 -5.707031 27.5625 -3.15625 C 25.0625 -0.613281 21.128906 0.65625 15.765625 0.65625 C 10.253906 0.65625 6.476562 -0.703125 4.4375 -3.421875 C 2.394531 -6.140625 1.832031 -10.96875 2.75 -17.90625 C 3.707031 -24.664062 5.429688 -29.347656 7.921875 -31.953125 Z M 19.53125 -29.578125 C 16.8125 -29.578125 14.875 -28.753906 13.71875 -27.109375 C 12.5625 -25.460938 11.625 -22.1875 10.90625 -17.28125 C 10.257812 -12.695312 10.273438 -9.601562 10.953125 -8 C 11.640625 -6.40625 13.289062 -5.609375 15.90625 -5.609375 C 18.59375 -5.609375 20.53125 -6.445312 21.71875 -8.125 C 22.914062 -9.8125 23.867188 -13.070312 24.578125 -17.90625 C 25.265625 -22.5625 25.257812 -25.671875 24.5625 -27.234375 C 23.863281 -28.796875 22.1875 -29.578125 19.53125 -29.578125 Z M 19.53125 -29.578125" transform="translate(132.017 175.168)"/></g></g></g><g fill="#FFF"><g><g><path d="M 1.421875 0 L 6.375 -35.1875 C 9.5 -35.5 13.832031 -35.65625 19.375 -35.65625 C 23.757812 -35.65625 26.960938 -34.84375 28.984375 -33.21875 C 31.015625 -31.601562 31.757812 -28.84375 31.21875 -24.9375 C 30.875 -22.457031 30.097656 -20.507812 28.890625 -19.09375 C 27.679688 -17.6875 25.820312 -16.832031 23.3125 -16.53125 L 23.25 -16.21875 C 25.601562 -15.675781 27.015625 -13.875 27.484375 -10.8125 L 29.328125 0 L 21.375 0 L 19.734375 -10.90625 C 19.597656 -12 19.304688 -12.738281 18.859375 -13.125 C 18.421875 -13.519531 17.726562 -13.71875 16.78125 -13.71875 L 10.96875 -13.765625 L 9.03125 0 Z M 11.828125 -19.734375 L 17.34375 -19.734375 C 19.382812 -19.734375 20.835938 -20.109375 21.703125 -20.859375 C 22.566406 -21.609375 23.148438 -23.003906 23.453125 -25.046875 C 23.734375 -26.804688 23.566406 -28.019531 22.953125 -28.6875 C 22.335938 -29.351562 21.097656 -29.6875 19.234375 -29.6875 L 13.203125 -29.625 Z M 11.828125 -19.734375" transform="translate(166.69 175.168)"/></g></g></g><g fill="#FFF"><g><g><path d="M 31.46875 -28.859375 L 20.96875 -28.859375 L 16.9375 0 L 9.125 0 L 13.203125 -28.859375 L 2.75 -28.859375 L 3.625 -35.1875 L 32.328125 -35.1875 Z M 31.46875 -28.859375" transform="translate(199.373 175.168)"/></g></g></g><g fill="#FFF"><g><g><path d="M 9.234375 0 L 1.421875 0 L 6.375 -35.1875 L 14.171875 -35.1875 Z M 9.234375 0" transform="translate(229.66 175.168)"/></g></g></g><g fill="#FFF"><g><g><path d="M 28.453125 -29.0625 L 16.171875 -29.0625 C 15.015625 -29.0625 14.195312 -28.875 13.71875 -28.5 C 13.238281 -28.132812 12.929688 -27.40625 12.796875 -26.3125 L 11.984375 -20.34375 L 25.390625 -20.34375 L 24.640625 -14.84375 L 11.21875 -14.84375 L 9.125 0 L 1.328125 0 L 5.25 -28.203125 C 5.59375 -30.484375 6.492188 -32.242188 7.953125 -33.484375 C 9.421875 -34.722656 11.328125 -35.34375 13.671875 -35.34375 C 20.910156 -35.34375 26.160156 -35.140625 29.421875 -34.734375 Z M 28.453125 -29.0625" transform="translate(244.548 175.168)"/></g></g></g><g fill="#FFF"><g><g><path d="M 18.71875 -11.46875 L 17.140625 0 L 9.28125 0 L 10.96875 -11.890625 L 2.8125 -35.1875 L 10.609375 -35.1875 L 14.59375 -22.140625 C 14.957031 -20.640625 15.175781 -19.125 15.25 -17.59375 L 15.8125 -17.59375 C 16.144531 -19.15625 16.753906 -20.703125 17.640625 -22.234375 L 25.296875 -35.1875 L 33.65625 -35.1875 Z M 18.71875 -11.46875" transform="translate(272.643 175.168)"/></g></g></g><g fill="#FFF"><g><g><path d="M 7.0625 -2.875 L 3.296875 -2.875 L 2.5 0 L 0.015625 0 L 3.1875 -10.34375 C 3.226562 -10.539062 3.328125 -10.695312 3.484375 -10.8125 C 3.640625 -10.925781 3.820312 -10.984375 4.03125 -10.984375 L 6.328125 -10.984375 C 6.773438 -10.984375 7.054688 -10.769531 7.171875 -10.34375 L 10.328125 0 L 7.859375 0 Z M 6.546875 -4.765625 L 5.625 -8.125 C 5.488281 -8.65625 5.410156 -9 5.390625 -9.15625 L 4.96875 -9.15625 C 4.945312 -9.050781 4.910156 -8.878906 4.859375 -8.640625 C 4.804688 -8.410156 4.765625 -8.238281 4.734375 -8.125 L 3.8125 -4.765625 Z M 6.546875 -4.765625" transform="translate(156.82 239.286)"/></g></g></g><g fill="#FFF"><g><g><path d="M 1.109375 0 L 1.109375 -10.984375 C 2.617188 -11.078125 4.039062 -11.125 5.375 -11.125 C 7.132812 -11.125 8.351562 -10.71875 9.03125 -9.90625 C 9.71875 -9.101562 10.0625 -7.628906 10.0625 -5.484375 C 10.0625 -3.347656 9.71875 -1.875 9.03125 -1.0625 C 8.351562 -0.257812 7.132812 0.140625 5.375 0.140625 C 4.039062 0.140625 2.617188 0.09375 1.109375 0 Z M 3.53125 -9.21875 L 3.53125 -1.78125 C 3.71875 -1.78125 4.015625 -1.773438 4.421875 -1.765625 C 4.828125 -1.765625 5.144531 -1.765625 5.375 -1.765625 C 6.195312 -1.765625 6.757812 -2.023438 7.0625 -2.546875 C 7.363281 -3.066406 7.515625 -4.046875 7.515625 -5.484375 C 7.515625 -6.929688 7.363281 -7.914062 7.0625 -8.4375 C 6.757812 -8.96875 6.195312 -9.234375 5.375 -9.234375 Z M 3.53125 -9.21875" transform="translate(169.552 239.286)"/></g></g></g><g fill="#FFF"><g><g><path d="M 9.9375 -10.984375 L 12.28125 -10.984375 C 12.863281 -10.984375 13.164062 -10.679688 13.1875 -10.078125 L 13.609375 0 L 11.328125 0 L 10.953125 -9.09375 L 10.6875 -9.09375 L 9.03125 -2.296875 C 8.925781 -1.773438 8.597656 -1.515625 8.046875 -1.515625 L 6.453125 -1.515625 C 5.898438 -1.515625 5.570312 -1.773438 5.46875 -2.296875 L 3.796875 -9.09375 L 3.515625 -9.09375 L 3.203125 0 L 0.90625 0 L 1.3125 -10.078125 C 1.34375 -10.679688 1.644531 -10.984375 2.21875 -10.984375 L 4.546875 -10.984375 C 5.066406 -10.984375 5.390625 -10.722656 5.515625 -10.203125 L 6.84375 -4.734375 C 6.925781 -4.378906 7.023438 -3.863281 7.140625 -3.1875 L 7.34375 -3.1875 C 7.351562 -3.238281 7.390625 -3.453125 7.453125 -3.828125 C 7.523438 -4.210938 7.582031 -4.515625 7.625 -4.734375 L 8.953125 -10.203125 C 9.078125 -10.722656 9.40625 -10.984375 9.9375 -10.984375 Z M 9.9375 -10.984375" transform="translate(182.763 239.286)"/></g></g></g><g fill="#FFF"><g><g><path d="M 3.53125 0 L 1.109375 0 L 1.109375 -10.984375 L 3.53125 -10.984375 Z M 3.53125 0" transform="translate(199.65 239.286)"/></g></g></g><g fill="#FFF"><g><g><path d="M 10.375 -10.984375 L 10.375 -0.875 C 10.375 -0.289062 10.085938 0 9.515625 0 L 8.015625 0 C 7.765625 0 7.570312 -0.0507812 7.4375 -0.15625 C 7.300781 -0.269531 7.164062 -0.457031 7.03125 -0.71875 L 4.15625 -6.578125 C 3.789062 -7.347656 3.566406 -7.914062 3.484375 -8.28125 L 3.3125 -8.28125 C 3.382812 -7.75 3.421875 -7.164062 3.421875 -6.53125 L 3.421875 0 L 1.109375 0 L 1.109375 -10.109375 C 1.109375 -10.691406 1.398438 -10.984375 1.984375 -10.984375 L 3.46875 -10.984375 C 3.71875 -10.984375 3.910156 -10.925781 4.046875 -10.8125 C 4.179688 -10.707031 4.3125 -10.523438 4.4375 -10.265625 L 7.234375 -4.578125 C 7.492188 -4.054688 7.757812 -3.46875 8.03125 -2.8125 L 8.1875 -2.8125 C 8.125 -3.644531 8.09375 -4.265625 8.09375 -4.671875 L 8.09375 -10.984375 Z M 10.375 -10.984375" transform="translate(206.685 239.286)"/></g></g></g><g clip-path="url(#a)"><path fill="#FF3036" d="M 71.804688 206.539062 L 87.71875 194.292969 L 159.664062 194.292969 L 143.75 206.539062 L 71.804688 206.539062"/></g><g clip-path="url(#b)"><path fill="#FF3036" d="M 215.695312 206.539062 L 143.75 206.539062 L 159.664062 194.292969 L 231.609375 194.292969 Z M 215.695312 206.539062"/></g><g clip-path="url(#c)"><path fill="#FF3036" d="M 287.640625 206.539062 L 215.695312 206.539062 L 231.609375 194.292969 L 303.554688 194.292969 Z M 287.640625 206.539062"/></g></svg>